<svg xmlns="http://www.w3.org/2000/svg" viewBox="0 0 256 256" role="img" aria-label="PL-300 certification badge icon">
  <defs>
    <linearGradient id="shield" x1="128" y1="18" x2="128" y2="238" gradientUnits="userSpaceOnUse">
      <stop offset="0" stop-color="#4aa9f7"/>
      <stop offset="1" stop-color="#0b63ba"/>
    </linearGradient>
    <linearGradient id="cap" x1="128" y1="30" x2="128" y2="112" gradientUnits="userSpaceOnUse">
      <stop offset="0" stop-color="#4b4b4f"/>
      <stop offset="1" stop-color="#3a3a3e"/>
    </linearGradient>
  </defs>
  <path d="M128 18 189 35c13 4 22 16 22 30v83c0 48-30 75-83 97-53-22-83-49-83-97V65c0-14 9-26 22-30Z" fill="url(#shield)"/>
  <path d="M128 18 189 35c13 4 22 16 22 30v35H45V65c0-14 9-26 22-30Z" fill="url(#cap)"/>
  <path d="M38 95h180c14 0 24 12 22 26l-9 37c-2 11-12 18-23 18H48c-11 0-21-7-23-18l-9-37c-2-14 8-26 22-26Z" fill="#fff" stroke="#4b4b4f" stroke-width="6"/>
  <g transform="translate(91 46)">
    <rect width="18" height="18" rx="3" fill="#f35325"/>
    <rect x="22" width="18" height="18" rx="3" fill="#81bc06"/>
    <rect y="22" width="18" height="18" rx="3" fill="#05a6f0"/>
    <rect x="22" y="22" width="18" height="18" rx="3" fill="#ffba08"/>
  </g>
  <text x="128" y="61" text-anchor="middle" font-family="Segoe UI, Arial, sans-serif" font-size="20" font-weight="700" fill="#ffffff">MICROSOFT</text>
  <text x="128" y="83" text-anchor="middle" font-family="Segoe UI, Arial, sans-serif" font-size="11" letter-spacing="4" fill="#d9dde4">CERTIFIED</text>
  <text x="128" y="126" text-anchor="middle" font-family="Segoe UI, Arial, sans-serif" font-size="17" font-weight="800" fill="#22252d">PL-300</text>
  <text x="128" y="146" text-anchor="middle" font-family="Segoe UI, Arial, sans-serif" font-size="14" font-weight="700" fill="#22252d">DATA ANALYST</text>
  <text x="128" y="198" text-anchor="middle" font-family="Segoe UI, Arial, sans-serif" font-size="16" font-weight="700" letter-spacing="3" fill="#ffffff">ASSOCIATE</text>
  <path d="m95 214 7 14 16 2-12 10 3 15-14-8-14 8 3-15-12-10 16-2Zm66 0 7 14 16 2-12 10 3 15-14-8-14 8 3-15-12-10 16-2Z" fill="#fff"/>
</svg>
